<svg version="1.1" xmlns="http://www.w3.org/2000/svg" xmlns:xlink="http://www.w3.org/1999/xlink" width="700" height="700" viewBox="143,128.5,700,700"><g id="document" fill="#ffffff" fill-rule="nonzero" stroke="#000000" stroke-width="0" stroke-linecap="butt" stroke-linejoin="miter" stroke-miterlimit="10" stroke-dasharray="" stroke-dashoffset="0" font-family="none" font-weight="none" font-size="none" text-anchor="none" style="mix-blend-mode: normal"><rect x="143" y="91.78571" transform="scale(1,1.4)" width="700" height="500" id="Shape 1 1" vector-effect="non-scaling-stroke"/></g><g fill="none" fill-rule="nonzero" stroke="none" stroke-width="none" stroke-linecap="none" stroke-linejoin="none" stroke-miterlimit="10" stroke-dasharray="none" stroke-dashoffset="0" font-family="none" font-weight="none" font-size="none" text-anchor="none" style="mix-blend-mode: normal"><g id="stage"><g id="layer1 1"><path d="M483.30265,364.91084c-6.61673,14.96944 -15.77245,28.35389 -27.46714,40.15333c-11.69469,11.79944 -25.3898,21.74972 -41.08531,29.85083c-15.69551,8.10111 -32.77592,13.56056 -51.24123,16.37833c4.61633,15.85 10.23286,32.14028 16.84959,48.87083c6.61673,16.73056 13.77204,32.84472 21.46592,48.3425c7.69388,15.49778 15.69551,29.76278 24.0049,42.795c8.30939,13.03222 16.4649,23.775 24.46653,32.22833c-1.53878,3.52222 -3.77,7.04444 -6.69367,10.56667c-2.92367,3.52222 -6.30898,6.78028 -10.15592,9.77417c-3.84694,2.99389 -7.84776,5.45944 -12.00245,7.39667c-4.15469,1.93722 -8.07857,2.90583 -11.77163,2.90583c-6.77061,0 -13.23347,-3.69833 -19.38857,-11.095c-6.1551,-7.39667 -12.38714,-19.10806 -18.69612,-35.13417c-6.30898,-16.02611 -12.92571,-36.80722 -19.8502,-62.34333c-6.92449,-25.53611 -14.54143,-56.2675 -22.85082,-92.19417c-3.38531,0 -6.77061,0 -10.15592,0c-3.38531,0 -6.00122,-0.35222 -7.84776,-1.05667c-2.15429,-1.40889 -4.46245,-3.87444 -6.92449,-7.39667c-8.30939,20.42889 -15.69551,39.625 -22.15837,57.58833c-6.46286,17.96333 -12.23327,35.31028 -17.31123,52.04083c-5.07796,16.73056 -9.54041,32.93278 -13.38735,48.60667c-3.84694,15.67389 -7.15531,31.61194 -9.9251,47.81417c-10.46367,-2.81778 -19.54245,-7.925 -27.23633,-15.32167c-7.69388,-7.39667 -14.92612,-17.78722 -21.69674,-31.17167c1.23102,-3.17 2.53898,-6.25194 3.92388,-9.24583c1.3849,-2.99389 3.15449,-7.22056 5.30878,-12.68c2.15429,-5.45944 4.84714,-12.41583 8.07857,-20.86917c3.23143,-8.45333 7.54,-19.72444 12.92571,-33.81333c5.38571,-14.08889 11.84857,-31.34778 19.38857,-51.77667c7.54,-20.42889 16.69572,-45.26056 27.46714,-74.495c4.92408,-13.03222 9.15571,-24.47944 12.6949,-34.34167c3.53918,-9.86222 6.69367,-19.28417 9.46347,-28.26583c2.7698,-8.98167 5.30878,-17.96333 7.61694,-26.945c2.30816,-8.98167 4.69327,-19.28417 7.15531,-30.9075c-14.15674,5.63556 -27.31327,11.8875 -39.46959,18.75583c-12.15633,6.86833 -22.23531,14.17694 -30.23694,21.92583c-2.7698,-2.11333 -5.61653,-5.28333 -8.5402,-9.51c-2.92367,-4.22667 -5.61653,-8.89361 -8.07857,-14.00083c-2.46204,-5.10722 -4.61633,-10.3025 -6.46286,-15.58583c-1.84653,-5.28333 -2.92367,-10.03833 -3.23143,-14.265c9.23265,-7.04444 20.54265,-13.56056 33.93,-19.54833c13.38735,-5.98778 27.62102,-11.18306 42.70102,-15.58583c15.08,-4.40278 30.46776,-7.83694 46.16327,-10.3025c15.69551,-2.46556 30.31388,-3.69833 43.8551,-3.69833c36.93061,0 65.55184,8.7175 85.86368,26.1525c20.31184,17.435 30.46776,41.29806 30.46776,71.58917c0,16.90667 -3.30837,32.84473 -9.9251,47.81418z" id="Path 1" fill="#619b8a" stroke="#8f3985" stroke-width="13" stroke-linecap="butt" stroke-linejoin="miter" stroke-dasharray=""/><path d="M380.58938,272.71666c-2.15429,3.17 -5.53959,9.51 -10.15592,19.02c-4.61633,9.51 -9.9251,20.86917 -15.92633,34.0775c-6.00122,13.20833 -12.3102,27.56139 -18.92694,43.05917c-6.61673,15.49778 -13.00265,30.81944 -19.15776,45.965c23.08163,0 44.31674,-2.46556 63.70531,-7.39667c19.38857,-4.93111 36.16123,-11.8875 50.31796,-20.86917c14.15674,-8.98167 25.15898,-19.54833 33.00674,-31.7c7.84776,-12.15167 11.77163,-25.62417 11.77163,-40.4175c0,-17.61111 -5.53959,-31.08361 -16.61878,-40.4175c-11.07918,-9.33389 -28.15959,-14.00083 -51.24123,-14.00083c-5.23184,0 -10.46367,0.26417 -15.69551,0.7925c-5.23184,0.52833 -10.77143,1.14472 -16.61878,1.84917z" id="Path 1" fill="#ff6b6b" stroke="#8f3985" stroke-width="13" stroke-linecap="round" stroke-linejoin="round" stroke-dasharray=""/><path d="M508.46571,710.94283c-9.26112,-3.63357 -17.82419,-8.54998 -25.68919,-14.74922c-7.86501,-6.19925 -13.20641,-12.70758 -16.02421,-19.525c1.56859,-17.3629 3.26281,-33.24855 5.08267,-47.65694c1.81985,-14.40839 3.75717,-27.97477 5.81196,-40.69915c2.05478,-12.72438 4.28772,-24.86386 6.69882,-36.41843c2.41109,-11.55457 4.99218,-23.1595 7.74326,-34.81478c3.64113,-15.4261 7.63431,-31.67387 11.97953,-48.74328c4.34523,-17.06941 9.0283,-35.23526 14.04923,-54.49755c5.02093,-19.26229 10.29063,-39.91345 15.8091,-61.95349c5.51848,-22.04005 11.35244,-46.08656 17.50191,-72.13953c3.89382,0.91909 9.43112,3.58322 16.61189,7.99241c7.18078,4.40919 14.18554,9.2292 21.01427,14.46004c6.82874,5.23084 12.81354,10.35296 17.95444,15.36636c5.14089,5.0134 7.72766,8.79061 7.76032,11.33162c-5.26083,8.89147 -10.83504,20.78514 -16.7226,35.68101c-5.88756,14.89586 -11.73041,31.61178 -17.52854,50.14776c-5.79813,18.53598 -11.46459,38.18874 -16.9994,58.95829c-5.5348,20.76955 -10.72963,41.43838 -15.58447,62.00652c-3.64113,15.4261 -6.74815,29.25924 -9.32108,41.49942c-2.57292,12.24018 -4.78776,23.29823 -6.64453,33.17414c-1.85676,9.87591 -3.32705,19.11924 -4.41087,27.73c-1.08381,8.61075 -1.99765,17.17115 -2.74149,25.68121c15.26437,-27.15863 31.35244,-54.12284 48.2642,-80.89262c16.91176,-26.76979 33.86007,-52.35477 50.84493,-76.75494c16.98487,-24.40017 33.47005,-47.01831 49.45556,-67.8544c15.98551,-20.8361 30.73885,-38.7964 44.26002,-53.8809c13.52118,-15.0845 25.2193,-26.79935 35.09438,-35.14455c9.87508,-8.3452 17.28972,-12.29501 22.24394,-11.84943c3.13295,1.46329 6.30847,3.75091 9.52659,6.86286c3.21812,3.11195 6.11044,6.59938 8.67699,10.46229c2.56655,3.86291 4.75265,7.99792 6.55831,12.40504c1.80567,4.40711 3.01228,8.67283 3.61985,12.79715c-12.13429,1.84057 -26.50826,9.48577 -43.12192,22.93557c-16.61366,13.44981 -34.09111,30.22427 -52.43236,50.32338c-18.34125,20.09911 -36.79357,42.3434 -55.35697,66.73288c-18.5634,24.38948 -35.7871,48.46185 -51.67112,72.21711c-15.88401,23.75526 -29.94071,46.13234 -42.17009,67.13121c-12.22939,20.99888 -21.12,37.90017 -26.67184,50.70387c-7.86003,2.48756 -15.68387,2.81227 -23.4715,0.9741z" id="Path 1" fill="#ff6b6b" stroke="#1e1e24" stroke-width="6" stroke-linecap="round" stroke-linejoin="round" stroke-dasharray="0,0"/></g></g></g></svg>